<svg width="76" height="76" viewBox="0 0 76 76" fill="none" xmlns="http://www.w3.org/2000/svg">
<circle cx="38" cy="38" r="38" fill="#764CCD"/>
<path d="M49.7959 45.8653V59.1419C49.2316 58.7663 48.4309 58.5275 47.536 58.5275C45.8262 58.5275 44.4404 59.3824 44.4404 60.4393C44.4404 61.4962 45.8262 62.3528 47.536 62.3528C49.2458 62.3528 50.6316 61.4962 50.6316 60.441V50.6599L59.7448 47.955V55.9403C59.1788 55.5646 58.3798 55.3267 57.484 55.3267C55.7743 55.3267 54.3884 56.1824 54.3884 57.2401C54.3884 58.2962 55.7743 59.152 57.484 59.152C59.1938 59.152 60.5797 58.2962 60.5797 57.2401V42.6637L49.7959 45.8653Z" fill="white"/>
<path d="M61.4142 39.1515C61.4142 34.001 59.6283 29.0097 56.3608 25.0283C53.0933 21.0468 48.5464 18.3215 43.4948 17.3167C38.4432 16.3119 33.1994 17.0897 28.657 19.5177C24.1146 21.9456 20.5546 25.8735 18.5836 30.632C16.6125 35.3905 16.3524 40.6852 17.8475 45.614C19.3427 50.5428 22.5005 54.8007 26.7831 57.6622C31.0656 60.5237 36.2079 61.8118 41.3337 61.307" stroke="white" stroke-width="5"/>
<circle cx="39.1517" cy="39.1516" r="3.56566" stroke="white" stroke-width="4"/>
</svg>
