<svg width="412" height="154" viewBox="0 0 412 154" fill="none" xmlns="http://www.w3.org/2000/svg">
<path d="M0 34.0133L4.57778 52.4871C9.15556 70.6842 18.3111 108.047 27.4667 96.7691C36.6222 85.9062 45.7778 26.4023 54.9333 22.9428C64.0889 19.4833 73.2444 70.6842 82.4 81.9623C91.5556 92.8252 100.711 63.7652 109.867 59.8213C119.022 56.1542 128.178 78.2952 137.333 93.0328C146.489 108.047 155.644 114.966 164.8 100.436C173.956 85.9062 183.111 48.5433 192.267 34.0133C201.422 19.4833 210.578 26.4023 219.733 22.9428C228.889 19.4833 238.044 4.26136 247.2 0.801839C256.356 -2.65769 265.511 4.26137 274.667 37.6804C283.822 70.6842 292.978 130.188 302.133 144.718C311.289 159.248 320.444 130.188 329.6 115.174C338.756 100.436 347.911 100.436 357.067 111.507C366.222 122.577 375.378 144.718 384.533 137.315C393.689 130.188 402.844 92.8252 407.422 74.6281L412 56.1542V189H407.422C402.844 189 393.689 189 384.533 189C375.378 189 366.222 189 357.067 189C347.911 189 338.756 189 329.6 189C320.444 189 311.289 189 302.133 189C292.978 189 283.822 189 274.667 189C265.511 189 256.356 189 247.2 189C238.044 189 228.889 189 219.733 189C210.578 189 201.422 189 192.267 189C183.111 189 173.956 189 164.8 189C155.644 189 146.489 189 137.333 189C128.178 189 119.022 189 109.867 189C100.711 189 91.5556 189 82.4 189C73.2444 189 64.0889 189 54.9333 189C45.7778 189 36.6222 189 27.4667 189C18.3111 189 9.15556 189 4.57778 189H0V34.0133Z" fill="url(#paint0_linear_162:4292)"/>
<defs>
<linearGradient id="paint0_linear_162:4292" x1="206" y1="0" x2="206" y2="189" gradientUnits="userSpaceOnUse">
<stop stop-color="#B64CCD" stop-opacity="0.92"/>
<stop offset="1" stop-color="#764CCD" stop-opacity="0"/>
</linearGradient>
</defs>
</svg>
